<svg xmlns="http://www.w3.org/2000/svg" xmlns:xlink="http://www.w3.org/1999/xlink" viewBox="0,0,256,256" width="100%" height="100%"><g fill="#cccccc" fill-rule="nonzero" stroke="none" stroke-width="1" stroke-linecap="butt" stroke-linejoin="miter" stroke-miterlimit="10" stroke-dasharray="" stroke-dashoffset="0" font-family="none" font-weight="none" font-size="none" text-anchor="none" style="mix-blend-mode: normal"><g transform="scale(10.66667,10.66667)"><path d="M12,2c-5.523,0 -10,4.477 -10,10c0,5.523 4.477,10 10,10c5.523,0 10,-4.477 10,-10c0,-5.523 -4.477,-10 -10,-10zM12,4c4.418,0 8,3.582 8,8c0,4.418 -3.582,8 -8,8c-4.418,0 -8,-3.582 -8,-8c0,-4.418 3.582,-8 8,-8zM11.39258,5.12695v1.89648h-2.0918v9.95312h2.0918v1.8457h1.29883v-1.85156c0.957,-0.016 1.69889,-0.25642 2.21289,-0.73242c0.53,-0.492 0.79492,-1.2215 0.79492,-2.1875c0,-0.241 -0.02422,-0.47803 -0.07422,-0.70703c-0.051,-0.23 -0.13123,-0.44463 -0.24023,-0.64062c-0.109,-0.196 -0.25364,-0.36663 -0.43164,-0.51562c-0.178,-0.147 -0.39444,-0.25903 -0.64844,-0.33203c0.219,-0.096 0.4065,-0.21723 0.5625,-0.36524c0.158,-0.147 0.28858,-0.31309 0.39258,-0.49609c0.102,-0.183 0.17761,-0.37789 0.22461,-0.58789c0.049,-0.21 0.07227,-0.4273 0.07227,-0.6543c0,-0.465 -0.07184,-0.86894 -0.21484,-1.21094c-0.145,-0.342 -0.35395,-0.62456 -0.62695,-0.85156c-0.273,-0.225 -0.606,-0.39295 -1,-0.50195c-0.307,-0.085 -0.65544,-0.12748 -1.02344,-0.14648v-1.91406zM11.31055,8.69727h1.06641c0.41,0 0.70567,0.09892 0.88867,0.29492c0.183,0.196 0.27344,0.5197 0.27344,0.9707c0,0.401 -0.09802,0.70511 -0.29101,0.91211c-0.194,0.208 -0.49058,0.3125 -0.89258,0.3125h-1.04492zM11.31055,12.65039h1.35351c0.374,0 0.64088,0.12314 0.79688,0.36914c0.158,0.246 0.23633,0.57991 0.23633,1.00391c-0.001,0.186 -0.0215,0.35672 -0.0625,0.51172c-0.041,0.155 -0.10536,0.2912 -0.19336,0.4082c-0.09,0.115 -0.2028,0.20553 -0.3418,0.26953c-0.14,0.063 -0.30791,0.0957 -0.50391,0.0957h-1.28516z"></path></g></g></svg>