<svg xmlns="http://www.w3.org/2000/svg" xmlns:xlink="http://www.w3.org/1999/xlink" viewBox="0,0,256,256" width="100%" height="100%"><g fill="#cccccc" fill-rule="nonzero" stroke="none" stroke-width="1" stroke-linecap="butt" stroke-linejoin="miter" stroke-miterlimit="10" stroke-dasharray="" stroke-dashoffset="0" font-family="none" font-weight="none" font-size="none" text-anchor="none" style="mix-blend-mode: normal"><g transform="scale(5.33333,5.33333)"><path d="M15.5,5c-3.584,0 -6.5,2.916 -6.5,6.5v21.5h17.5c2.481,0 4.5,2.019 4.5,4.5v2.5c0,1.65 1.33833,2.99005 2.98633,2.99805h0.02734c1.641,-0.008 2.97337,-1.33852 2.98438,-2.97852c0.001,-0.53 0.00195,-32.01953 0.00195,-32.01953c0,-1.13 0.39039,-2.162 1.02539,-3zM42,5c-1.654,0 -3,1.346 -3,3v6h3.5c1.379,0 2.5,-1.121 2.5,-2.5v-3.5c0,-1.654 -1.346,-3 -3,-3zM16.5,12h13c0.828,0 1.5,0.672 1.5,1.5c0,0.828 -0.672,1.5 -1.5,1.5h-13c-0.828,0 -1.5,-0.672 -1.5,-1.5c0,-0.828 0.672,-1.5 1.5,-1.5zM16.5,19h13c0.828,0 1.5,0.672 1.5,1.5c0,0.828 -0.672,1.5 -1.5,1.5h-13c-0.828,0 -1.5,-0.672 -1.5,-1.5c0,-0.828 0.672,-1.5 1.5,-1.5zM16.5,26h11c0.828,0 1.5,0.672 1.5,1.5c0,0.828 -0.672,1.5 -1.5,1.5h-11c-0.828,0 -1.5,-0.672 -1.5,-1.5c0,-0.828 0.672,-1.5 1.5,-1.5zM5.5,35c-1.379,0 -2.5,1.121 -2.5,2.5v1c0,2.481 2.019,4.5 4.5,4.5h22.52539c-0.635,-0.838 -1.02539,-1.87 -1.02539,-3v-2.5c0,-1.379 -1.121,-2.5 -2.5,-2.5z"></path></g></g></svg>